<?xml version="1.0" encoding="UTF-8"?><svg xmlns="http://www.w3.org/2000/svg" viewBox="0 0 221.07 223.32"><defs><style>.cls-1{fill:#9f8bff;}.cls-2{fill:#303030;}</style></defs><g id="base"><rect class="cls-1" x="12.04" y="11.77" width="197" height="197" rx="6.54" ry="6.54"/><path d="M202.5,15.27c1.67,0,3.04,1.36,3.04,3.04v183.93c0,1.67-1.36,3.04-3.04,3.04H18.58c-1.67,0-3.04-1.36-3.04-3.04V18.31c0-1.67,1.36-3.04,3.04-3.04h183.93M202.5,8.27H18.58c-5.55,0-10.04,4.49-10.04,10.04v183.93c0,5.54,4.49,10.04,10.04,10.04h183.93c5.54,0,10.04-4.49,10.04-10.04V18.31c0-5.54-4.49-10.04-10.04-10.04h0Z"/></g><g id="_x31_"><path class="cls-2" d="M193.6,97.58h-30.06v19.15h12.35c-1.99,34.61-30.77,62.16-65.87,62.16s-65.99-29.6-65.99-65.99c0-32.98,24.32-60.39,55.96-65.23v10.92h19.15v-30.19c-3-.32-6.04-.5-9.13-.5-46.87,0-84.99,38.13-84.99,84.99s38.13,84.99,84.99,84.99,84.99-38.13,84.99-84.99c0-5.23-.5-10.35-1.41-15.32Z"/></g><g id="_x32_"><rect class="cls-2" x="78.9" y="126.2" width="62.42" height="66.25" rx="20.85" ry="20.85"/><ellipse class="cls-2" cx="110.11" cy="97.58" rx="24.32" ry="23.46"/><polygon class="cls-2" points="168.3 63.23 168.3 33.92 148.3 33.92 148.3 63.23 135.14 63.23 158.3 87.55 181.45 63.23 168.3 63.23"/></g></svg>