<?xml version="1.0" encoding="UTF-8"?><svg xmlns="http://www.w3.org/2000/svg" viewBox="0 0 222 222"><defs><style>.uuid-8838b9e3-7645-476b-ae0b-0b85c3d71b1f{fill:#aad746;}.uuid-fb85d7c6-043a-4354-ac29-0dafd1c22858{fill:#323230;}</style></defs><g id="uuid-436da789-f731-455a-9111-a00d5cfc4593"><rect class="uuid-8838b9e3-7645-476b-ae0b-0b85c3d71b1f" x="12.5" y="12.5" width="197" height="197" rx="6.54" ry="6.54"/><path d="M202.96,16c1.67,0,3.04,1.36,3.04,3.04v183.93c0,1.67-1.36,3.04-3.04,3.04H19.04c-1.67,0-3.04-1.36-3.04-3.04V19.04c0-1.67,1.36-3.04,3.04-3.04h183.93M202.96,9H19.04c-5.54,0-10.04,4.49-10.04,10.04v183.93c0,5.54,4.49,10.04,10.04,10.04h183.93c5.54,0,10.04-4.49,10.04-10.04V19.04c0-5.54-4.49-10.04-10.04-10.04h0Z"/></g><g id="uuid-b33d0538-b6d1-4dc2-aac5-8a7f6913f871"><path class="uuid-fb85d7c6-043a-4354-ac29-0dafd1c22858" d="M152.54,125.06s-18.9-4.51-28.43,4.51c-8.86,8.38-11.83,19.86-7.23,26.68l-8.87,7.25v-41.63c6.82,3.03,17,.14,24.79-7.65,9.28-9.28,5.3-28.29,5.3-28.29,0,0-19.02-3.98-28.29,5.3-6.13,6.13-9.22,13.74-8.8,20.03v35.52l-8.68-8.68c2.42-6.39-.08-15.46-6.83-22.56-8.46-8.9-26.59-5.4-26.59-5.4,0,0-4.41,17.93,4.05,26.83,8.12,8.55,19.41,11.09,25.8,6.05l12.25,12.25v22.76h7v-6.77l13.53-11.05c6.74,3.17,16.95.56,24.93-6.99,9.53-9.01,6.08-28.14,6.08-28.14Z"/></g><g id="uuid-031784a5-5b6c-497c-b555-843f1ad151bf"><path class="uuid-fb85d7c6-043a-4354-ac29-0dafd1c22858" d="M105,54c-38.05,0-69,30.06-69,67v57h10v-57c0-31.43,26.47-57,59-57,16.77,0,32.81,6.93,44,19.02l7.34-6.79c-13.08-14.13-31.79-22.23-51.34-22.23Z"/><rect class="uuid-fb85d7c6-043a-4354-ac29-0dafd1c22858" x="163" y="107" width="10" height="71"/><polygon class="uuid-fb85d7c6-043a-4354-ac29-0dafd1c22858" points="175.59 31 157.33 62 175 62 193.86 62 175.59 31"/><polygon class="uuid-fb85d7c6-043a-4354-ac29-0dafd1c22858" points="194.05 93 175 62 155.95 93 194.05 93"/></g></svg>